<?xml version="1.0" standalone="no"?>
<!DOCTYPE svg PUBLIC "-//W3C//DTD SVG 20010904//EN"
 "http://www.w3.org/TR/2001/REC-SVG-20010904/DTD/svg10.dtd">
<svg version="1.0" xmlns="http://www.w3.org/2000/svg"
 width="500.000000pt" height="500.000000pt" viewBox="0 0 500.000000 500.000000"
 preserveAspectRatio="xMidYMid meet">
<metadata>
Created by potrace 1.14, written by Peter Selinger 2001-2017
</metadata>
<g transform="translate(0.000000,500.000000) scale(0.100000,-0.100000)"
fill="#000000" stroke="none">
<path d="M1437 4318 c-75 -16 -139 -74 -162 -148 -11 -38 -13 -299 -12 -1685
1 -902 5 -1649 9 -1661 10 -34 43 -82 69 -102 68 -53 80 -55 314 -56 121 0
238 2 260 4 86 8 156 65 185 149 15 47 17 162 17 1511 0 803 3 1463 7 1467 3
3 6 -3 6 -14 0 -18 27 -91 75 -198 37 -83 46 -104 111 -255 36 -85 90 -210
120 -278 30 -67 54 -125 54 -127 0 -2 13 -33 29 -67 16 -35 47 -108 71 -163
23 -55 50 -118 60 -140 10 -22 66 -150 123 -285 116 -271 125 -292 158 -365
12 -27 40 -93 61 -145 22 -52 48 -113 58 -135 10 -22 89 -204 175 -405 189
-439 197 -455 245 -500 76 -73 153 -74 320 -5 325 134 372 163 406 250 32 85
10 159 -156 530 -10 22 -37 85 -60 140 -23 55 -48 114 -56 130 -28 64 -159
366 -211 490 -30 72 -63 148 -73 170 -10 22 -32 74 -50 115 -18 41 -40 93 -50
115 -10 22 -37 85 -60 140 -23 55 -50 118 -60 140 -22 51 -57 132 -159 370
-45 105 -88 204 -95 220 -8 17 -21 46 -29 65 -8 19 -24 55 -35 80 -11 25 -46
106 -77 180 -92 215 -124 277 -165 314 -64 57 -138 69 -231 37 -105 -36 -400
-168 -430 -193 -26 -21 -69 -89 -69 -109 0 -10 -3 -20 -7 -22 -5 -3 -8 59 -9
136 -1 126 -3 147 -23 185 -30 59 -76 98 -137 115 -57 16 -447 20 -517 5z"/>
</g>
</svg>
